<svg width="215" height="204" viewBox="0 0 215 204" fill="none" xmlns="http://www.w3.org/2000/svg">
<path fill-rule="evenodd" clip-rule="evenodd" d="M214.394 3.97832C214.959 6.68136 213.226 9.33049 210.523 9.8953L179.536 16.3702L161.627 56.9018L150.833 85.2786L142.084 108.279L134.173 129.077L132.045 134.672C139.236 139.97 147.841 147.45 153.032 154.924C155.952 159.129 158.454 164.262 157.886 169.463C157.243 175.35 152.992 179.404 146.716 181.697C146.184 181.892 145.622 181.994 145.055 182.001L9.05516 183.501C6.29391 183.531 4.03078 181.317 4.00032 178.556C3.96987 175.795 6.18362 173.532 8.94488 173.501L144.039 172.011C147.465 170.592 147.863 169.129 147.945 168.377C148.108 166.886 147.373 164.306 144.818 160.628C140.098 153.831 131.389 146.421 124.234 141.365L53.5631 135.166L53.5403 135.164L29.5672 132.951L11.5935 131.484C9.19283 131.289 7.27295 129.409 7.0263 127.013L4.96748 107.013L2.59983 84.013L0.026304 59.013C-0.116559 57.6252 0.32691 56.2408 1.24957 55.1943C2.17222 54.1478 3.49015 53.5344 4.88492 53.5023L29.8669 52.9271L29.8985 52.9264L53.867 52.3745L53.8984 52.3737L79.3662 51.7873L79.3992 51.7865L104.367 51.2116L104.399 51.2109L129.367 50.636L129.399 50.6352L153.71 50.0754L171.427 9.98019C172.078 8.50611 173.4 7.43634 174.977 7.10672L208.477 0.106716C211.18 -0.4581 213.829 1.27528 214.394 3.97832ZM149.684 60.1708L134.5 60.5204V78.501H142.712L149.684 60.1708ZM138.908 88.501H134.5V100.09L138.908 88.501ZM124.5 101.501V88.501H109.5V101.501H124.5ZM99.5 101.501V88.501H84.5V101.501H99.5ZM84.5 111.501H99.5V129.157L84.5 127.841V111.501ZM74.5 101.501V88.501H59V101.501H74.5ZM59 111.501H74.5V126.964L59 125.605V111.501ZM49 101.501V88.501H35V101.501H49ZM35 111.501H49V124.702L35 123.41V111.501ZM25 101.501V88.501H13.1147L14.4529 101.501H25ZM15.4823 111.501H25V122.545L16.5482 121.855L15.4823 111.501ZM12.0853 78.501H25V63.0418L10.5282 63.375L12.0853 78.501ZM35 62.8115V78.501H49V62.4892L35 62.8115ZM59 62.2589V78.501H74.5V61.902L59 62.2589ZM84.5 61.6717V78.501H99.5V61.3263L84.5 61.6717ZM109.5 61.0961V78.501H124.5V60.7507L109.5 61.0961ZM109.5 130.034V111.501H124.5V126.381L122.671 131.19L109.5 130.034ZM33 195.001C33 199.695 29.1944 203.501 24.5 203.501C19.8056 203.501 16 199.695 16 195.001C16 190.307 19.8056 186.501 24.5 186.501C29.1944 186.501 33 190.307 33 195.001ZM142.5 203.501C147.194 203.501 151 199.695 151 195.001C151 190.307 147.194 186.501 142.5 186.501C137.806 186.501 134 190.307 134 195.001C134 199.695 137.806 203.501 142.5 203.501Z" fill="white"/>
</svg>
