<svg width="26" height="22" viewBox="0 0 26 22" fill="none" xmlns="http://www.w3.org/2000/svg">
<path d="M21.9526 3.08212L21.8846 3.26716L21.9611 3.44886L25.4985 11.8454C25.4362 14.2524 23.3764 16.2197 20.8002 16.2197C18.2197 16.2197 16.1563 14.2449 16.1015 11.8315L19.464 3.86109L19.7569 3.16674H19.0033H15.3957H15.0625L14.9342 3.47431C14.7729 3.86107 14.5024 4.18976 14.1629 4.42095L13.9443 4.56978V4.83424V17.8931V18.3931H14.4443H19.1446V19.0665C19.1446 20.4111 18.0613 21.5 16.7555 21.5H9.24447C7.9387 21.5 6.85544 20.4111 6.85544 19.0665V18.3931H11.5553H12.0553V17.8931V4.83469V4.57L11.8364 4.42119C11.4973 4.1907 11.2268 3.86181 11.0654 3.47446L10.9372 3.16674H10.6039H6.99581H6.24262L6.53502 3.86085L9.89863 11.8454C9.83626 14.2524 7.77647 16.2197 5.20027 16.2197C2.62484 16.2197 0.563878 14.2523 0.501457 11.8455L4.03889 3.44979L4.11536 3.26828L4.04751 3.08338C3.99549 2.94165 3.96685 2.7934 3.96685 2.64036C3.96685 1.93681 4.52601 1.38027 5.19982 1.38027C5.60768 1.38027 5.97136 1.58313 6.19843 1.90297L6.34791 2.11353H6.60613H10.6039H10.9375L11.0656 1.80542C11.3863 1.03385 12.1345 0.5 12.9996 0.5C13.8643 0.5 14.6135 1.03407 14.9346 1.80486L15.0627 2.11262H15.3961H19.3939H19.6523L19.8018 1.90179C20.0284 1.58213 20.3915 1.37936 20.7993 1.37936C21.4734 1.37936 22.0332 1.93624 22.0332 2.63946C22.0332 2.79268 22.0044 2.94126 21.9526 3.08212ZM25.9937 11.733L25.8006 11.2746C25.7883 11.2799 25.7753 11.2862 25.7617 11.2935C25.7341 11.3085 25.6794 11.3412 25.6265 11.4006C25.5697 11.4645 25.5 11.5779 25.5 11.733H25.9937ZM8.82263 12.233H9.57578L9.28341 11.5389L6.16245 4.12967L5.98683 3.71274L5.55447 3.84593C5.44164 3.88068 5.32229 3.89955 5.19937 3.89955C5.07665 3.89955 4.95789 3.88074 4.84475 3.84611L4.41295 3.71396L4.23764 4.13012L1.11668 11.5389L0.824286 12.233H1.57746H8.82263ZM16.7104 11.5387L16.4175 12.233H17.1711H24.423H25.1762L24.8838 11.5389L21.7623 4.13009L21.5867 3.71321L21.1544 3.84638C21.0415 3.88116 20.9226 3.9 20.7993 3.9C20.676 3.9 20.5571 3.88116 20.4442 3.84638L20.0121 3.71328L19.8363 4.12986L16.7104 11.5387Z" fill="white" stroke="white"/>
</svg>
