<svg width="52" height="52" viewBox="0 0 52 52" fill="none" xmlns="http://www.w3.org/2000/svg">
<path fill-rule="evenodd" clip-rule="evenodd" d="M29.75 47.2517C41.7782 45.5687 51 35.914 51 24.2558C51 11.412 39.8071 1 26 1C12.1929 1 1 11.412 1 24.2558C1 35.914 10.2218 45.5687 22.25 47.2517V51H29.75V47.2517Z" fill="#E4F745"/>
<path d="M29.75 47.2517L29.6807 46.7566L29.25 46.8168V47.2517H29.75ZM22.25 47.2517H22.75V46.8168L22.3193 46.7566L22.25 47.2517ZM22.25 51H21.75V51.5H22.25V51ZM29.75 51V51.5H30.25V51H29.75ZM50.5 24.2558C50.5 35.6344 41.4931 45.1037 29.6807 46.7566L29.8193 47.7469C42.0632 46.0336 51.5 36.1937 51.5 24.2558H50.5ZM26 1.5C39.5656 1.5 50.5 11.7216 50.5 24.2558H51.5C51.5 11.1024 40.0486 0.5 26 0.5V1.5ZM1.5 24.2558C1.5 11.7216 12.4344 1.5 26 1.5V0.5C11.9514 0.5 0.5 11.1024 0.5 24.2558H1.5ZM22.3193 46.7566C10.5068 45.1037 1.5 35.6344 1.5 24.2558H0.5C0.5 36.1937 9.93683 46.0336 22.1807 47.7469L22.3193 46.7566ZM22.75 51V47.2517H21.75V51H22.75ZM29.75 50.5H22.25V51.5H29.75V50.5ZM29.25 47.2517V51H30.25V47.2517H29.25Z" fill="#E4F745"/>
<circle cx="26" cy="23" r="8.5" stroke="#296B4D" stroke-width="3"/>
</svg>
