<svg width="36" height="50" viewBox="0 0 36 50" fill="none" xmlns="http://www.w3.org/2000/svg">
<path d="M1 5.79973C6.25604 8.10464 20.4145 11.3315 35 5.79973M1 5.79973C6.25604 2.17774 20.4145 -2.89305 35 5.79973M1 5.79973V8.76318M1 42.3489V8.76318M1 42.3489C2.03803 42.7057 3.37273 43.0881 4.94203 43.4476M1 42.3489V45.9456C6.91304 48.2505 21.9913 51.4774 35 45.9456V42.3489M35 42.3489V8.76318M35 42.3489C33.682 42.8152 32.3499 43.2089 31.014 43.5379M35 5.79973V8.76318M1 8.76318C2.01794 9.22696 3.35219 9.72559 4.94203 10.1904M35 8.76318C33.6705 9.31842 32.3393 9.7913 31.014 10.1904M4.94203 10.1904V43.4476M4.94203 10.1904C6.51749 10.6509 8.34395 11.0782 10.3623 11.4054M4.94203 43.4476C6.53002 43.8112 8.35822 44.1513 10.3623 44.4171M10.3623 11.4054V44.4171M10.3623 11.4054C11.9019 11.655 13.5532 11.8463 15.2899 11.9498M10.3623 44.4171C11.9098 44.6223 13.5622 44.7833 15.2899 44.8767M15.2899 11.9498V44.8767M15.2899 11.9498C16.8683 12.0438 18.5174 12.0651 20.2174 11.9916M15.2899 44.8767C16.8765 44.9625 18.5267 44.9913 20.2174 44.945M20.2174 11.9916V44.945M20.2174 11.9916C22.0304 11.9132 23.9014 11.7268 25.8063 11.4054M20.2174 44.945C23.7106 44.8494 27.3769 44.4334 31.014 43.5379M25.8063 11.4054V44.3246M25.8063 11.4054C27.5205 11.1163 29.2621 10.7178 31.014 10.1904M31.014 10.1904V43.5379" stroke="#E4F745" stroke-width="2" stroke-linecap="round" stroke-linejoin="round"/>
</svg>
