<svg width="45" height="62" viewBox="0 0 45 62" fill="none" xmlns="http://www.w3.org/2000/svg">
<path d="M16.0048 5.31429V9.06971H11.0526L9.1866 9.99086V17.9977L6.10048 20.4069V29.4057H12.7751L16.0048 32.5943H12.8469L11.555 33.8697H0V43.2229H16.0048V46.8366H17.512V62H28.4928V46.8366H29.7129V43.2229H45V33.8697H34.0191L32.7273 32.5943H29.3541L32.5837 29.4057H39.6172V20.4069L35.6699 17.9977V9.99086L33.9474 8.99886H28.4928V5.31429H27.0574V3.89714L26.4115 3.25943V2.26743L25.622 1.488H24.4737V0H19.8804V1.488H18.8038L18.0144 2.26743V3.25943L17.3684 3.89714V5.31429H16.0048Z" fill="#E4F745"/>
</svg>
