<svg width="62" height="62" viewBox="0 0 62 62" fill="none" xmlns="http://www.w3.org/2000/svg">
<path fill-rule="evenodd" clip-rule="evenodd" d="M24.1386 8.07827L23.886 12.8085C11.1536 13.3623 1 23.9333 1 36.8929C1 50.2069 11.7167 61 24.9365 61C38.1562 61 48.8729 50.2069 48.8729 36.8929C48.8729 35.1338 48.6858 33.4187 48.3306 31.7666C50.9456 29.8733 55.8338 33.6264 58.1102 36.541C59.2084 34.6034 59.7401 33.8177 60.2718 33.0321C60.4997 32.6954 60.7275 32.3587 61 31.9313L51.847 26.4818L47.0955 27.7601C43.8937 19.8885 36.677 14.1016 28.0103 12.9826C27.1695 9.9165 32.1553 6.45853 35.5749 5.19453C34.0855 3.54294 33.5084 2.79055 32.9312 2.03816L32.9312 2.03814L32.9312 2.03812C32.6839 1.71568 32.4365 1.39323 32.1174 1L24.1386 8.07827ZM47.7814 29.6745C47.8903 30.0246 47.9916 30.3781 48.0849 30.7349C48.009 30.4026 47.9014 30.0377 47.7814 29.6745ZM47.8729 36.8929C47.8729 49.6613 37.5972 60 24.9365 60C12.2757 60 2 49.6613 2 36.8929C2 24.1244 12.2757 13.7857 24.9365 13.7857C37.5972 13.7857 47.8729 24.1244 47.8729 36.8929ZM26.5961 36.8928C26.5961 37.8266 25.8463 38.5714 24.9364 38.5714C24.0266 38.5714 23.2768 37.8266 23.2768 36.8928C23.2768 35.9591 24.0266 35.2143 24.9364 35.2143C25.8463 35.2143 26.5961 35.9591 26.5961 36.8928ZM27.5961 36.8928C27.5961 38.3722 26.4053 39.5714 24.9364 39.5714C23.4676 39.5714 22.2768 38.3722 22.2768 36.8928C22.2768 35.4135 23.4676 34.2143 24.9364 34.2143C26.4053 34.2143 27.5961 35.4135 27.5961 36.8928ZM24.9365 41.25C27.3152 41.25 29.2557 39.306 29.2557 36.8929C29.2557 34.4798 27.3152 32.5357 24.9365 32.5357C22.5577 32.5357 20.6172 34.4798 20.6172 36.8929C20.6172 39.306 22.5577 41.25 24.9365 41.25ZM24.9365 42.25C27.8742 42.25 30.2557 39.8515 30.2557 36.8929C30.2557 33.9342 27.8742 31.5357 24.9365 31.5357C21.9987 31.5357 19.6172 33.9342 19.6172 36.8929C19.6172 39.8515 21.9987 42.25 24.9365 42.25ZM41.55 37.0301C41.55 46.3714 34.0329 53.9319 24.775 53.9319C15.5171 53.9319 8 46.3714 8 37.0301C8 27.6888 15.5171 20.1284 24.775 20.1284C34.0329 20.1284 41.55 27.6888 41.55 37.0301ZM42.55 37.0301C42.55 46.917 34.5919 54.9319 24.775 54.9319C14.9581 54.9319 7 46.917 7 37.0301C7 27.1433 14.9581 19.1284 24.775 19.1284C34.5919 19.1284 42.55 27.1433 42.55 37.0301Z" fill="#E4F745"/>
<path d="M23.886 12.8085L23.9077 13.308C24.1649 13.2969 24.3716 13.0922 24.3853 12.8352L23.886 12.8085ZM24.1386 8.07827L23.8067 7.70424C23.7067 7.79297 23.6464 7.91808 23.6393 8.05161L24.1386 8.07827ZM48.3306 31.7666L48.0374 31.3617C47.8768 31.4779 47.8001 31.678 47.8418 31.8718L48.3306 31.7666ZM58.1102 36.541L57.7161 36.8488C57.8189 36.9803 57.9805 37.0519 58.147 37.0396C58.3135 37.0273 58.4629 36.9328 58.5452 36.7875L58.1102 36.541ZM60.2718 33.0321L60.6859 33.3124L60.2718 33.0321ZM61 31.9313L61.4216 32.2001C61.4943 32.0861 61.5177 31.9474 61.4865 31.8158C61.4552 31.6842 61.372 31.5709 61.2558 31.5017L61 31.9313ZM51.847 26.4818L52.1027 26.0522C51.9867 25.9831 51.8475 25.9639 51.7171 25.999L51.847 26.4818ZM47.0955 27.7601L46.6324 27.9485C46.7275 28.1822 46.9818 28.3085 47.2254 28.2429L47.0955 27.7601ZM28.0103 12.9826L27.5281 13.1149C27.5814 13.3093 27.7463 13.4527 27.9462 13.4785L28.0103 12.9826ZM35.5749 5.19453L35.7482 5.66351C35.9038 5.60601 36.0207 5.47512 36.0604 5.31409C36.1 5.15306 36.0573 4.98284 35.9462 4.85968L35.5749 5.19453ZM32.9312 2.03816L32.5077 2.3039C32.516 2.31717 32.525 2.33004 32.5345 2.34247L32.9312 2.03816ZM32.9312 2.03814L33.3548 1.77238L33.3523 1.76861L32.9312 2.03814ZM32.9312 2.03812L33.3523 1.76859C33.3447 1.75666 33.3366 1.74505 33.3279 1.73381L32.9312 2.03812ZM32.1174 1L32.5056 0.684913C32.4196 0.578994 32.2941 0.512797 32.1582 0.501667C32.0222 0.490537 31.8876 0.535441 31.7856 0.625969L32.1174 1ZM47.7814 29.6745L48.2561 29.5176C48.1701 29.257 47.89 29.1145 47.6287 29.1984C47.3673 29.2822 47.2224 29.561 47.304 29.823L47.7814 29.6745ZM48.0849 30.7349L47.6012 30.8614C47.6703 31.1256 47.9385 31.2855 48.2038 31.2205C48.469 31.1556 48.6331 30.8899 48.5723 30.6236L48.0849 30.7349ZM24.3853 12.8352L24.6379 8.10493L23.6393 8.05161L23.3867 12.7819L24.3853 12.8352ZM1.5 36.8929C1.5 24.1991 11.4448 13.8501 23.9077 13.308L23.8643 12.309C10.8625 12.8744 0.5 23.6676 0.5 36.8929H1.5ZM24.9365 60.5C11.9962 60.5 1.5 49.9341 1.5 36.8929H0.5C0.5 50.4796 11.4372 61.5 24.9365 61.5V60.5ZM48.3729 36.8929C48.3729 49.9341 37.8767 60.5 24.9365 60.5V61.5C38.4357 61.5 49.3729 50.4796 49.3729 36.8929H48.3729ZM47.8418 31.8718C48.1896 33.4894 48.3729 35.1693 48.3729 36.8929H49.3729C49.3729 35.0982 49.182 33.3479 48.8194 31.6615L47.8418 31.8718ZM48.6238 32.1716C49.1427 31.796 49.7951 31.6809 50.5665 31.7983C51.3441 31.9167 52.2105 32.2683 53.0961 32.7831C54.8676 33.813 56.6119 35.435 57.7161 36.8488L58.5042 36.2332C57.3321 34.7324 55.4941 33.0206 53.5987 31.9186C52.6508 31.3676 51.6625 30.9537 50.717 30.8097C49.7653 30.6649 48.826 30.7907 48.0374 31.3617L48.6238 32.1716ZM58.5452 36.7875C59.6354 34.8641 60.1597 34.0899 60.6859 33.3124L59.8577 32.7519C59.3205 33.5456 58.7814 34.3427 57.6752 36.2944L58.5452 36.7875ZM60.6859 33.3124C60.9138 32.9756 61.1451 32.6339 61.4216 32.2001L60.5784 31.6626C60.31 32.0836 60.0856 32.4152 59.8577 32.7519L60.6859 33.3124ZM61.2558 31.5017L52.1027 26.0522L51.5912 26.9114L60.7442 32.361L61.2558 31.5017ZM51.7171 25.999L46.9656 27.2773L47.2254 28.2429L51.9769 26.9646L51.7171 25.999ZM27.9462 13.4785C36.4288 14.5737 43.4964 20.2387 46.6324 27.9485L47.5587 27.5717C44.2911 19.5383 36.9252 13.6295 28.0743 12.4868L27.9462 13.4785ZM35.4015 4.72554C33.6398 5.37675 31.4823 6.58787 29.8613 8.04041C29.0505 8.76694 28.3529 9.57246 27.9129 10.4195C27.471 11.2703 27.2752 12.1927 27.5281 13.1149L28.4925 12.8504C28.3249 12.2395 28.4371 11.5798 28.8004 10.8804C29.1656 10.1773 29.7706 9.46439 30.5286 8.78515C32.0452 7.42617 34.0904 6.27631 35.7482 5.66351L35.4015 4.72554ZM32.5345 2.34247C33.1176 3.10264 33.7033 3.86569 35.2035 5.52938L35.9462 4.85968C34.4677 3.2202 33.8991 2.47846 33.3279 1.73384L32.5345 2.34247ZM32.5077 2.30388L32.5077 2.3039L33.3548 1.77241L33.3547 1.77239L32.5077 2.30388ZM32.5101 2.30765L32.5101 2.30767L33.3523 1.76861L33.3523 1.76859L32.5101 2.30765ZM31.7292 1.31509C32.0435 1.70243 32.2871 2.02 32.5345 2.34244L33.3279 1.73381C33.0806 1.41135 32.8295 1.08402 32.5056 0.684913L31.7292 1.31509ZM24.4704 8.4523L32.4492 1.37403L31.7856 0.625969L23.8067 7.70424L24.4704 8.4523ZM47.304 29.823C47.4106 30.1659 47.5098 30.5121 47.6012 30.8614L48.5686 30.6084C48.4733 30.2442 48.37 29.8833 48.2588 29.5259L47.304 29.823ZM47.3066 29.8313C47.4237 30.1859 47.5263 30.5346 47.5974 30.8461L48.5723 30.6236C48.4918 30.2706 48.379 29.8895 48.2561 29.5176L47.3066 29.8313ZM24.9365 60.5C37.8767 60.5 48.3729 49.9341 48.3729 36.8929H47.3729C47.3729 49.3885 37.3178 59.5 24.9365 59.5V60.5ZM1.5 36.8929C1.5 49.9341 11.9962 60.5 24.9365 60.5V59.5C12.5551 59.5 2.5 49.3885 2.5 36.8929H1.5ZM24.9365 13.2857C11.9962 13.2857 1.5 23.8516 1.5 36.8929H2.5C2.5 24.3973 12.5551 14.2857 24.9365 14.2857V13.2857ZM48.3729 36.8929C48.3729 23.8516 37.8767 13.2857 24.9365 13.2857V14.2857C37.3178 14.2857 47.3729 24.3973 47.3729 36.8929H48.3729ZM24.9364 39.0714C26.1252 39.0714 27.0961 38.1 27.0961 36.8928H26.0961C26.0961 37.5532 25.5675 38.0714 24.9364 38.0714V39.0714ZM22.7768 36.8928C22.7768 38.1 23.7477 39.0714 24.9364 39.0714V38.0714C24.3054 38.0714 23.7768 37.5532 23.7768 36.8928H22.7768ZM24.9364 34.7143C23.7477 34.7143 22.7768 35.6857 22.7768 36.8928H23.7768C23.7768 36.2325 24.3054 35.7143 24.9364 35.7143V34.7143ZM27.0961 36.8928C27.0961 35.6857 26.1252 34.7143 24.9364 34.7143V35.7143C25.5675 35.7143 26.0961 36.2325 26.0961 36.8928H27.0961ZM24.9364 40.0714C26.6848 40.0714 28.0961 38.645 28.0961 36.8928H27.0961C27.0961 38.0994 26.1258 39.0714 24.9364 39.0714V40.0714ZM21.7768 36.8928C21.7768 38.645 23.1881 40.0714 24.9364 40.0714V39.0714C23.7471 39.0714 22.7768 38.0994 22.7768 36.8928H21.7768ZM24.9364 33.7143C23.1881 33.7143 21.7768 35.1407 21.7768 36.8928H22.7768C22.7768 35.6863 23.7471 34.7143 24.9364 34.7143V33.7143ZM28.0961 36.8928C28.0961 35.1407 26.6848 33.7143 24.9364 33.7143V34.7143C26.1258 34.7143 27.0961 35.6863 27.0961 36.8928H28.0961ZM28.7557 36.8929C28.7557 39.0329 27.036 40.75 24.9365 40.75V41.75C27.5945 41.75 29.7557 39.579 29.7557 36.8929H28.7557ZM24.9365 33.0357C27.036 33.0357 28.7557 34.7528 28.7557 36.8929H29.7557C29.7557 34.2067 27.5945 32.0357 24.9365 32.0357V33.0357ZM21.1172 36.8929C21.1172 34.7528 22.837 33.0357 24.9365 33.0357V32.0357C22.2785 32.0357 20.1172 34.2067 20.1172 36.8929H21.1172ZM24.9365 40.75C22.837 40.75 21.1172 39.0329 21.1172 36.8929H20.1172C20.1172 39.579 22.2785 41.75 24.9365 41.75V40.75ZM29.7557 36.8929C29.7557 39.5787 27.5947 41.75 24.9365 41.75V42.75C28.1537 42.75 30.7557 40.1243 30.7557 36.8929H29.7557ZM24.9365 32.0357C27.5947 32.0357 29.7557 34.207 29.7557 36.8929H30.7557C30.7557 33.6614 28.1537 31.0357 24.9365 31.0357V32.0357ZM20.1172 36.8929C20.1172 34.207 22.2782 32.0357 24.9365 32.0357V31.0357C21.7193 31.0357 19.1172 33.6614 19.1172 36.8929H20.1172ZM24.9365 41.75C22.2782 41.75 20.1172 39.5787 20.1172 36.8929H19.1172C19.1172 40.1243 21.7193 42.75 24.9365 42.75V41.75ZM24.775 54.4319C34.3123 54.4319 42.05 46.6443 42.05 37.0301H41.05C41.05 46.0986 33.7535 53.4319 24.775 53.4319V54.4319ZM7.5 37.0301C7.5 46.6443 15.2377 54.4319 24.775 54.4319V53.4319C15.7965 53.4319 8.5 46.0986 8.5 37.0301H7.5ZM24.775 19.6284C15.2377 19.6284 7.5 27.416 7.5 37.0301H8.5C8.5 27.9617 15.7965 20.6284 24.775 20.6284V19.6284ZM42.05 37.0301C42.05 27.416 34.3123 19.6284 24.775 19.6284V20.6284C33.7535 20.6284 41.05 27.9617 41.05 37.0301H42.05ZM24.775 55.4319C34.8713 55.4319 43.05 47.1898 43.05 37.0301H42.05C42.05 46.6442 34.3124 54.4319 24.775 54.4319V55.4319ZM6.5 37.0301C6.5 47.1898 14.6787 55.4319 24.775 55.4319V54.4319C15.2376 54.4319 7.5 46.6442 7.5 37.0301H6.5ZM24.775 18.6284C14.6787 18.6284 6.5 26.8705 6.5 37.0301H7.5C7.5 27.416 15.2376 19.6284 24.775 19.6284V18.6284ZM43.05 37.0301C43.05 26.8705 34.8713 18.6284 24.775 18.6284V19.6284C34.3124 19.6284 42.05 27.416 42.05 37.0301H43.05Z" fill="#E4F745"/>
</svg>
