<svg width="187" height="59" viewBox="0 0 187 59" fill="none" xmlns="http://www.w3.org/2000/svg">
<path fill-rule="evenodd" clip-rule="evenodd" d="M18.4541 16.6638L18.2644 20.3814C8.70086 20.8166 1.07422 29.125 1.07422 39.3106C1.07422 49.7748 9.12379 58.2577 19.0534 58.2577C28.9831 58.2577 37.0326 49.7748 37.0326 39.3106C37.0326 37.9281 36.8921 36.5801 36.6253 35.2817C38.5895 33.7936 42.2611 36.7434 43.971 39.0341C44.7959 37.5112 45.1952 36.8937 45.5946 36.2763C45.7658 36.0116 45.9369 35.747 46.1416 35.4111L39.2665 31.128L35.6976 32.1327C33.2927 25.946 27.872 21.3977 21.3622 20.5183C20.7308 18.1085 24.4757 15.3907 27.0442 14.3973C25.9255 13.0992 25.492 12.5079 25.0585 11.9165L25.0585 11.9165C24.8727 11.6631 24.6869 11.4097 24.4472 11.1006L18.4541 16.6638ZM36.2128 33.6375C36.2946 33.9126 36.3706 34.1903 36.4407 34.4706C36.3838 34.2095 36.3029 33.9229 36.2128 33.6375ZM36.0326 39.3106C36.0326 49.2726 28.382 57.2577 19.0534 57.2577C9.72483 57.2577 2.07422 49.2726 2.07422 39.3106C2.07422 29.3487 9.72483 21.3635 19.0534 21.3635C28.382 21.3635 36.0326 29.3487 36.0326 39.3106ZM20.0511 39.3108C20.0511 39.9712 19.5557 40.416 19.0534 40.416C18.5512 40.416 18.0557 39.9712 18.0557 39.3108C18.0557 38.6503 18.5512 38.2056 19.0534 38.2056C19.5557 38.2056 20.0511 38.6503 20.0511 39.3108ZM21.0511 39.3108C21.0511 40.4735 20.1567 41.416 19.0534 41.416C17.9501 41.416 17.0557 40.4735 17.0557 39.3108C17.0557 38.1481 17.9501 37.2056 19.0534 37.2056C20.1567 37.2056 21.0511 38.1481 21.0511 39.3108ZM19.0535 42.5211C20.659 42.5211 22.0488 41.1338 22.0488 39.3106C22.0488 37.4875 20.659 36.1002 19.0535 36.1002C17.4479 36.1002 16.0581 37.4875 16.0581 39.3106C16.0581 41.1338 17.4479 42.5211 19.0535 42.5211ZM19.0535 43.5211C21.26 43.5211 23.0488 41.636 23.0488 39.3106C23.0488 36.9853 21.26 35.1002 19.0535 35.1002C16.8469 35.1002 15.0581 36.9853 15.0581 39.3106C15.0581 41.636 16.8469 43.5211 19.0535 43.5211ZM31.2834 39.4187C31.2834 46.6871 25.7048 52.4886 18.9322 52.4886C12.1595 52.4886 6.58096 46.6871 6.58096 39.4187C6.58096 32.1503 12.1595 26.3487 18.9322 26.3487C25.7048 26.3487 31.2834 32.1503 31.2834 39.4187ZM32.2834 39.4187C32.2834 47.1893 26.3058 53.4886 18.9322 53.4886C11.5585 53.4886 5.58096 47.1893 5.58096 39.4187C5.58096 31.6481 11.5585 25.3487 18.9322 25.3487C26.3058 25.3487 32.2834 31.6481 32.2834 39.4187Z" fill="#E4F745"/>
<path d="M18.2644 20.3814L18.2872 20.8809C18.5444 20.8692 18.7507 20.6641 18.7638 20.4069L18.2644 20.3814ZM18.4541 16.6638L18.114 16.2973C18.0185 16.3859 17.9614 16.5082 17.9548 16.6383L18.4541 16.6638ZM36.6253 35.2817L36.3234 34.8831C36.1698 34.9994 36.0968 35.1936 36.1356 35.3823L36.6253 35.2817ZM43.971 39.0341L43.5703 39.3332C43.6723 39.4699 43.837 39.5451 44.0071 39.5328C44.1773 39.5204 44.3294 39.4222 44.4106 39.2722L43.971 39.0341ZM45.5946 36.2763L45.1748 36.0047L45.1748 36.0047L45.5946 36.2763ZM46.1416 35.4111L46.5686 35.6712C46.7112 35.4371 46.6387 35.1317 46.406 34.9867L46.1416 35.4111ZM39.2665 31.128L39.5309 30.7036C39.4116 30.6293 39.2664 30.6086 39.131 30.6467L39.2665 31.128ZM35.6976 32.1327L35.2316 32.3139C35.3249 32.5539 35.5852 32.6838 35.8331 32.614L35.6976 32.1327ZM21.3622 20.5183L20.8786 20.645C20.9299 20.841 21.0945 20.9867 21.2953 21.0138L21.3622 20.5183ZM27.0442 14.3973L27.2246 14.8636C27.3762 14.805 27.4898 14.6763 27.5292 14.5187C27.5687 14.361 27.5291 14.194 27.423 14.0709L27.0442 14.3973ZM25.0585 11.9165L25.4618 11.6209C25.4525 11.6083 25.4426 11.5961 25.4322 11.5843L25.0585 11.9165ZM25.0585 11.9165L24.6552 12.2121C24.6645 12.2248 24.6744 12.237 24.6848 12.2487L25.0585 11.9165ZM24.4472 11.1006L24.8423 10.7941C24.7563 10.6833 24.6277 10.6137 24.4879 10.6022C24.348 10.5908 24.2099 10.6387 24.107 10.7341L24.4472 11.1006ZM36.2128 33.6375L36.6896 33.487C36.607 33.2252 36.3288 33.079 36.0663 33.1595C35.8038 33.2399 35.6553 33.5169 35.7336 33.78L36.2128 33.6375ZM36.4407 34.4706L35.9556 34.5919C36.0219 34.8569 36.2886 35.0197 36.5546 34.9575C36.8207 34.8952 36.9875 34.631 36.9292 34.364L36.4407 34.4706ZM18.7638 20.4069L18.9535 16.6893L17.9548 16.6383L17.7651 20.356L18.7638 20.4069ZM1.57422 39.3106C1.57422 29.3702 9.0122 21.303 18.2872 20.8809L18.2417 19.882C8.38951 20.3303 0.574219 28.8799 0.574219 39.3106H1.57422ZM19.0534 57.7577C9.42431 57.7577 1.57422 49.5237 1.57422 39.3106H0.574219C0.574219 50.0259 8.82326 58.7577 19.0534 58.7577V57.7577ZM36.5326 39.3106C36.5326 49.5237 28.6826 57.7577 19.0534 57.7577V58.7577C29.2836 58.7577 37.5326 50.0259 37.5326 39.3106H36.5326ZM36.1356 35.3823C36.3956 36.6477 36.5326 37.962 36.5326 39.3106H37.5326C37.5326 37.8941 37.3887 36.5124 37.1151 35.181L36.1356 35.3823ZM36.9273 35.6802C37.2819 35.4115 37.7311 35.324 38.2826 35.4118C38.8424 35.501 39.4762 35.768 40.1337 36.168C41.4484 36.9678 42.7479 38.2313 43.5703 39.3332L44.3717 38.735C43.4843 37.5461 42.093 36.1894 40.6534 35.3137C39.9337 34.8759 39.1744 34.5413 38.4399 34.4243C37.6971 34.306 36.9509 34.4077 36.3234 34.8831L36.9273 35.6802ZM44.4106 39.2722C45.228 37.7633 45.6203 37.1572 46.0144 36.5478L45.1748 36.0047C44.7702 36.6303 44.3638 37.2591 43.5313 38.7959L44.4106 39.2722ZM46.0144 36.5478C46.1856 36.2832 46.3601 36.0135 46.5686 35.6712L45.7146 35.1509C45.5138 35.4805 45.3459 35.7401 45.1748 36.0047L46.0144 36.5478ZM46.406 34.9867L39.5309 30.7036L39.0021 31.5524L45.8772 35.8355L46.406 34.9867ZM39.131 30.6467L35.5621 31.6514L35.8331 32.614L39.402 31.6093L39.131 30.6467ZM21.2953 21.0138C27.6108 21.867 32.8873 26.2831 35.2316 32.3139L36.1637 31.9515C33.698 25.6088 28.1332 20.9285 21.4292 20.0228L21.2953 21.0138ZM26.8638 13.931C25.5259 14.4484 23.8911 15.4088 22.6613 16.5619C22.0457 17.139 21.5123 17.7824 21.1746 18.4626C20.8352 19.1463 20.6817 19.8938 20.8786 20.645L21.8459 20.3916C21.727 19.9379 21.8048 19.442 22.0703 18.9073C22.3375 18.3691 22.7824 17.8191 23.3452 17.2914C24.4721 16.2348 25.994 15.3396 27.2246 14.8636L26.8638 13.931ZM24.6553 12.2121C25.0945 12.8113 25.5362 13.4134 26.6654 14.7237L27.423 14.0709C26.3148 12.7851 25.8895 12.2045 25.4618 11.6209L24.6553 12.2121ZM24.6848 12.2487L24.6848 12.2487L25.4322 11.5843L25.4322 11.5843L24.6848 12.2487ZM24.0521 11.407C24.2872 11.7102 24.4695 11.9587 24.6552 12.2121L25.4617 11.6209C25.276 11.3675 25.0866 11.1091 24.8423 10.7941L24.0521 11.407ZM18.7943 17.0302L24.7874 11.467L24.107 10.7341L18.114 16.2973L18.7943 17.0302ZM35.7336 33.78C35.8133 34.0481 35.8874 34.3187 35.9556 34.5919L36.9258 34.3494C36.8539 34.0619 36.776 33.7771 36.6921 33.495L35.7336 33.78ZM35.736 33.788C35.8235 34.065 35.8996 34.3361 35.9522 34.5772L36.9292 34.364C36.8679 34.083 36.7824 33.7807 36.6896 33.487L35.736 33.788ZM19.0534 57.7577C28.6821 57.7577 36.5326 49.5241 36.5326 39.3106H35.5326C35.5326 49.021 28.0819 56.7577 19.0534 56.7577V57.7577ZM1.57422 39.3106C1.57422 49.5241 9.42472 57.7577 19.0534 57.7577V56.7577C10.0249 56.7577 2.57422 49.021 2.57422 39.3106H1.57422ZM19.0534 20.8635C9.42472 20.8635 1.57422 29.0971 1.57422 39.3106H2.57422C2.57422 29.6002 10.0249 21.8635 19.0534 21.8635V20.8635ZM36.5326 39.3106C36.5326 29.0971 28.6821 20.8635 19.0534 20.8635V21.8635C28.0819 21.8635 35.5326 29.6002 35.5326 39.3106H36.5326ZM19.0534 40.916C19.8493 40.916 20.5511 40.2296 20.5511 39.3108H19.5511C19.5511 39.7129 19.2621 39.916 19.0534 39.916V40.916ZM17.5557 39.3108C17.5557 40.2296 18.2576 40.916 19.0534 40.916V39.916C18.8448 39.916 18.5557 39.7129 18.5557 39.3108H17.5557ZM19.0534 37.7056C18.2576 37.7056 17.5557 38.392 17.5557 39.3108H18.5557C18.5557 38.9087 18.8448 38.7056 19.0534 38.7056V37.7056ZM20.5511 39.3108C20.5511 38.392 19.8493 37.7056 19.0534 37.7056V38.7056C19.2621 38.7056 19.5511 38.9087 19.5511 39.3108H20.5511ZM19.0534 41.916C20.4572 41.916 21.5511 40.7246 21.5511 39.3108H20.5511C20.5511 40.2224 19.8562 40.916 19.0534 40.916V41.916ZM16.5557 39.3108C16.5557 40.7246 17.6496 41.916 19.0534 41.916V40.916C18.2507 40.916 17.5557 40.2224 17.5557 39.3108H16.5557ZM19.0534 36.7056C17.6496 36.7056 16.5557 37.897 16.5557 39.3108H17.5557C17.5557 38.3992 18.2507 37.7056 19.0534 37.7056V36.7056ZM21.5511 39.3108C21.5511 37.897 20.4572 36.7056 19.0534 36.7056V37.7056C19.8562 37.7056 20.5511 38.3992 20.5511 39.3108H21.5511ZM21.5488 39.3106C21.5488 40.8802 20.3608 42.0211 19.0535 42.0211V43.0211C20.9572 43.0211 22.5488 41.3874 22.5488 39.3106H21.5488ZM19.0535 36.6002C20.3608 36.6002 21.5488 37.7411 21.5488 39.3106H22.5488C22.5488 37.2339 20.9572 35.6002 19.0535 35.6002V36.6002ZM16.5581 39.3106C16.5581 37.7411 17.7461 36.6002 19.0535 36.6002V35.6002C17.1497 35.6002 15.5581 37.2339 15.5581 39.3106H16.5581ZM19.0535 42.0211C17.7461 42.0211 16.5581 40.8802 16.5581 39.3106H15.5581C15.5581 41.3874 17.1497 43.0211 19.0535 43.0211V42.0211ZM22.5488 39.3106C22.5488 41.3849 20.9595 43.0211 19.0535 43.0211V44.0211C21.5606 44.0211 23.5488 41.8871 23.5488 39.3106H22.5488ZM19.0535 35.6002C20.9595 35.6002 22.5488 37.2364 22.5488 39.3106H23.5488C23.5488 36.7341 21.5606 34.6002 19.0535 34.6002V35.6002ZM15.5581 39.3106C15.5581 37.2364 17.1474 35.6002 19.0535 35.6002V34.6002C16.5463 34.6002 14.5581 36.7341 14.5581 39.3106H15.5581ZM19.0535 43.0211C17.1474 43.0211 15.5581 41.3849 15.5581 39.3106H14.5581C14.5581 41.8871 16.5463 44.0211 19.0535 44.0211V43.0211ZM18.9322 52.9886C26.0047 52.9886 31.7834 46.9388 31.7834 39.4187H30.7834C30.7834 46.4354 25.4048 51.9886 18.9322 51.9886V52.9886ZM6.08096 39.4187C6.08096 46.9388 11.8596 52.9886 18.9322 52.9886V51.9886C12.4595 51.9886 7.08096 46.4354 7.08096 39.4187H6.08096ZM18.9322 25.8487C11.8596 25.8487 6.08096 31.8986 6.08096 39.4187H7.08096C7.08096 32.402 12.4595 26.8487 18.9322 26.8487V25.8487ZM31.7834 39.4187C31.7834 31.8986 26.0047 25.8487 18.9322 25.8487V26.8487C25.4048 26.8487 30.7834 32.402 30.7834 39.4187H31.7834ZM18.9322 53.9886C26.6064 53.9886 32.7834 47.4404 32.7834 39.4187H31.7834C31.7834 46.9382 26.0053 52.9886 18.9322 52.9886V53.9886ZM5.08096 39.4187C5.08096 47.4404 11.258 53.9886 18.9322 53.9886V52.9886C11.859 52.9886 6.08096 46.9382 6.08096 39.4187H5.08096ZM18.9322 24.8487C11.258 24.8487 5.08096 31.397 5.08096 39.4187H6.08096C6.08096 31.8992 11.859 25.8487 18.9322 25.8487V24.8487ZM32.7834 39.4187C32.7834 31.397 26.6064 24.8487 18.9322 24.8487V25.8487C26.0053 25.8487 31.7834 31.8992 31.7834 39.4187H32.7834Z" fill="#E4F745"/>
<path fill-rule="evenodd" clip-rule="evenodd" d="M99.4254 44.6894C110.267 43.1021 118.579 33.9964 118.579 23.001C118.579 10.8874 108.49 1.06738 96.0454 1.06738C83.6004 1.06738 73.5117 10.8874 73.5117 23.001C73.5117 33.9964 81.8238 43.1021 92.6653 44.6894V48.2246H99.4254V44.6894Z" fill="#E4F745"/>
<path d="M99.4254 44.6894L99.353 44.1947L98.9254 44.2573V44.6894H99.4254ZM92.6653 44.6894H93.1653V44.2573L92.7378 44.1947L92.6653 44.6894ZM92.6653 48.2246H92.1653V48.7246H92.6653V48.2246ZM99.4254 48.2246V48.7246H99.9254V48.2246H99.4254ZM118.079 23.001C118.079 33.7346 109.963 42.6413 99.353 44.1947L99.4979 45.1842C110.571 43.5628 119.079 34.2582 119.079 23.001H118.079ZM96.0454 1.56738C108.227 1.56738 118.079 11.1762 118.079 23.001H119.079C119.079 10.5986 108.754 0.567383 96.0454 0.567383V1.56738ZM74.0117 23.001C74.0117 11.1762 83.8637 1.56738 96.0454 1.56738V0.567383C83.3371 0.567383 73.0117 10.5986 73.0117 23.001H74.0117ZM92.7378 44.1947C82.128 42.6413 74.0117 33.7346 74.0117 23.001H73.0117C73.0117 34.2582 81.5196 43.5628 92.5929 45.1842L92.7378 44.1947ZM93.1653 48.2246V44.6894H92.1653V48.2246H93.1653ZM99.4254 47.7246H92.6653V48.7246H99.4254V47.7246ZM98.9254 44.6894V48.2246H99.9254V44.6894H98.9254Z" fill="#E4F745"/>
<path d="M103.558 21.8162C103.558 26.2614 100.131 29.7477 96.0447 29.7477C91.9585 29.7477 88.5312 26.2614 88.5312 21.8162C88.5312 17.371 91.9585 13.8848 96.0447 13.8848C100.131 13.8848 103.558 17.371 103.558 21.8162Z" stroke="#00030A" stroke-width="3"/>
<path fill-rule="evenodd" clip-rule="evenodd" d="M186.346 12.8142C186.501 12.0004 185.967 11.215 185.153 11.06C184.339 10.905 183.554 11.439 183.399 12.2528L180.595 26.9723C177.605 19.5049 170.555 14.2591 162.333 14.2591C151.403 14.2591 142.543 23.5304 142.543 34.9672C142.543 35.0808 142.544 35.1942 142.546 35.3074C142.473 35.4677 142.427 35.6436 142.415 35.8297L141.046 56.7277C140.992 57.5543 141.618 58.2683 142.445 58.3225C143.272 58.3766 143.986 57.7504 144.04 56.9237L144.843 44.6647C148.166 51.2146 154.752 55.6752 162.333 55.6752C173.263 55.6752 182.124 46.4039 182.124 34.9672C182.124 34.77 182.121 34.5734 182.116 34.3776C182.226 34.2144 182.305 34.0267 182.344 33.8212L186.346 12.8142ZM179.124 34.9672C179.124 44.8766 171.48 52.6752 162.333 52.6752C153.187 52.6752 145.543 44.8766 145.543 34.9672C145.543 25.0577 153.187 17.2591 162.333 17.2591C171.48 17.2591 179.124 25.0577 179.124 34.9672ZM174.726 34.9672C174.726 42.3351 169.051 48.0734 162.333 48.0734C155.616 48.0734 149.941 42.3351 149.941 34.9672C149.941 27.5992 155.616 21.8609 162.333 21.8609C169.051 21.8609 174.726 27.5992 174.726 34.9672ZM177.726 34.9672C177.726 43.8624 170.834 51.0734 162.333 51.0734C153.832 51.0734 146.941 43.8624 146.941 34.9672C146.941 26.0719 153.832 18.8609 162.333 18.8609C170.834 18.8609 177.726 26.0719 177.726 34.9672ZM162.333 43.4716C166.622 43.4716 170.328 39.7936 170.328 34.9672C170.328 30.1407 166.622 26.4627 162.333 26.4627C158.045 26.4627 154.339 30.1407 154.339 34.9672C154.339 39.7936 158.045 43.4716 162.333 43.4716ZM162.333 46.4716C168.406 46.4716 173.328 41.3209 173.328 34.9672C173.328 28.6134 168.406 23.4627 162.333 23.4627C156.261 23.4627 151.339 28.6134 151.339 34.9672C151.339 41.3209 156.261 46.4716 162.333 46.4716Z" fill="#E4F745"/>
</svg>
