<svg width="60" height="54" viewBox="0 0 60 54" fill="none" xmlns="http://www.w3.org/2000/svg">
<path fill-rule="evenodd" clip-rule="evenodd" d="M60 1C60 0.447715 59.5523 0 59 0H1C0.447715 0 0 0.447715 0 1V45C0 45.5523 0.447716 46 1 46H24C24.5523 46 25 46.4477 25 47V53C25 53.5523 25.4477 54 26 54H34C34.5523 54 35 53.5523 35 53V47C35 46.4477 35.4477 46 36 46H59C59.5523 46 60 45.5523 60 45V1Z" fill="#E4F745"/>
<rect x="3" y="3" width="54" height="40" rx="1" fill="#B8CD09"/>
<path d="M27 50C27 49.4477 27.4477 49 28 49H32C32.5523 49 33 49.4477 33 50V54H27V50Z" fill="#086972"/>
</svg>
