<svg width="146" height="36" viewBox="0 0 146 36" fill="none" xmlns="http://www.w3.org/2000/svg">
<path d="M1 22C3.49135 17.5 11.4637 8 28.9031 8.5C31.2284 6.16667 37.1744 1.5 42.3564 1.5L62.2872 1C63.1176 1 65.1772 1.3 66.7716 2.5C68.3661 3.7 75.0761 9 78.2318 11.5L135.533 15C139.021 15.5 143.406 19.3 145 24.5M14.4533 15C20.4325 14.1667 32.8736 13.5692 35.8789 14C39.3668 14.5 42.8547 16 46.8408 20M112.114 20.5C114.107 18.6667 119.588 15.2 125.567 16C133.042 17 136.031 20 142.01 24.5M11.4637 35L12.0429 30.6405M15.4498 35L14.8706 30.6405M12.0429 30.6405L13.4567 20L14.8706 30.6405M12.0429 30.6405H14.8706M24.4187 23V34.5C25.9135 35 25.9135 35 27.4083 34.5V23M37.872 23H36.3772M37.872 23H39.3668M37.872 23V35M60.2941 35V29.5M60.2941 29.5V23H62.7855C64.7785 24.5 64.2803 28.5 62.7855 29.5H60.2941ZM74.7439 23H72.2526V29M74.7439 35H72.2526V29M72.2526 29H74.2457M83.7128 35V29.5M83.7128 29.5V23H86.2042C86.7024 24 87.699 26.5 86.2042 29.5M83.7128 29.5H86.2042M86.2042 29.5C86.3702 29.5 86.7024 30.6 86.7024 35M120.585 35V23L123.574 35V23M132.543 35L133.019 31.1843M136.031 35L135.397 31.1843M133.019 31.1843L134.038 23L135.397 31.1843M133.019 31.1843H135.397M100.156 26C100.156 23 100.156 23 97.6644 23C96.1695 23 96.1695 24.5 96.1695 25.5C96.1695 26.5 96.0302 28.672 97.6644 29C99.6574 29.4 100.156 30.5 100.156 31V33.5C100.156 34 99.7571 35 98.1626 35C96.5682 35 96.1695 34.3333 96.1695 34V32M48.3356 24C48.5017 23.6667 49.0332 23 49.8304 23C50.6277 23 51.1592 23.6667 51.3253 24V34C51.3253 34.3333 51.0263 35 49.8304 35C48.6346 35 48.3356 34.3333 48.3356 34V24ZM108.128 24C108.294 23.6667 108.826 23 109.623 23C110.42 23 110.952 23.6667 111.118 24V34C111.118 34.3333 110.819 35 109.623 35C108.427 35 108.128 34.3333 108.128 34V24Z" stroke="white" stroke-linecap="round" stroke-linejoin="round"/>
</svg>
