<svg width="20" height="69" viewBox="0 0 20 69" fill="none" xmlns="http://www.w3.org/2000/svg">
<path d="M11.4567 0.285017C10.0174 -0.182423 8.85815 0.00545425 8.18044 0.278101C7.87953 0.399162 7.72414 0.710638 7.72414 1.03499V10.2434C7.72414 10.7813 7.2908 11.221 6.7831 11.3987C6.32511 11.5589 5.82604 11.8343 5.44461 12.2796C5.19821 12.5673 4.86419 12.7932 4.48543 12.7932H3.2069C2.65461 12.7932 2.2069 13.2409 2.2069 13.7932V20.8618C2.2069 21.3018 2.4938 21.5546 2.82357 21.6999C3.32722 21.9218 3.79521 22.3396 3.79719 22.89C3.80144 24.0664 3.80665 26.0493 3.8005 27.5051C3.79815 28.0623 3.33698 28.5037 2.78169 28.5494C1.98064 28.6153 1.03261 28.7859 0.372204 29.1551C0.120485 29.2957 0 29.5786 0 29.8669V36.8956C0 37.2193 0.262454 37.4818 0.586207 37.4818C0.90996 37.4818 1.17241 37.7442 1.17241 38.068V49.4428C1.17241 49.5142 1.17828 49.586 1.20201 49.6534C1.36491 50.1159 2.00787 50.8454 3.55432 51.069C4.10092 51.148 4.55172 51.5841 4.55172 52.1364V58.6458C4.55172 58.6967 4.55469 58.7472 4.56623 58.7968C4.6964 59.3565 5.3969 60.4204 7.30505 61.0586C7.74556 61.2059 8.06897 61.6024 8.06897 62.0669V67.8156C8.06897 68.2687 8.37313 68.6715 8.82124 68.7383C9.79867 68.8839 10.7593 68.8296 11.4537 68.7306C11.9022 68.6666 12.2069 68.2687 12.2069 67.8156V62.2739C12.2069 61.7216 12.6631 61.2897 13.196 61.1447C14.6057 60.7613 15.423 59.6109 15.7315 58.881C15.7755 58.777 15.7931 58.6646 15.7931 58.5517V52.1364C15.7931 51.5841 16.2443 51.1493 16.7897 51.0622C18.2364 50.8309 18.8467 50.1114 19.0052 49.6535C19.0285 49.586 19.0345 49.5142 19.0345 49.4428V37.9645C19.0345 37.6979 19.2506 37.4818 19.5172 37.4818C19.7839 37.4818 20 37.2656 20 36.999V29.4132C20 28.9757 19.0204 28.7269 18.1204 28.605C17.5919 28.5333 17.1724 28.0976 17.1724 27.5642V22.8962C17.1724 22.344 17.6334 21.9293 18.1602 21.7635C18.708 21.5912 18.9478 21.2871 19.0166 21.0738C19.0323 21.0253 19.0345 20.9742 19.0345 20.9233V13.7932C19.0345 13.2409 18.5868 12.7932 18.0345 12.7932H15.1053C14.7992 12.7932 14.5151 12.6477 14.2982 12.4318C13.8365 11.9722 13.309 11.6606 12.8609 11.4643C12.4182 11.2704 12.069 10.8558 12.069 10.3725V1.17285C12.069 0.775054 11.8351 0.407886 11.4567 0.285017Z" fill="#E4F745"/>
</svg>
