<svg width="50" height="50" viewBox="0 0 50 50" fill="none" xmlns="http://www.w3.org/2000/svg">
<path fill-rule="evenodd" clip-rule="evenodd" d="M49.3562 1.79351C49.5181 0.981067 48.9908 0.19117 48.1784 0.0292274C47.3659 -0.132715 46.576 0.39462 46.4141 1.20706L43.2947 16.8566C40.0763 8.91156 32.2859 3.3075 23.1866 3.3075C11.2095 3.3075 1.50006 13.0169 1.50006 24.994C1.50006 25.2611 1.50489 25.527 1.51446 25.7917C1.50961 25.8265 1.50594 25.8618 1.5035 25.8974L0.00357027 47.7828C-0.0530736 48.6093 0.571009 49.3253 1.3975 49.3819C2.22399 49.4385 2.93991 48.8145 2.99655 47.988L3.89307 34.9068C7.49263 41.8986 14.7812 46.6806 23.1866 46.6806C35.1637 46.6806 44.8731 36.9712 44.8731 24.994C44.8731 24.7083 44.8676 24.4238 44.8566 24.1407C44.9077 24.0323 44.9466 23.916 44.9711 23.7932L49.3562 1.79351ZM41.8731 24.994C41.8731 35.3143 33.5069 43.6806 23.1866 43.6806C12.8663 43.6806 4.50006 35.3143 4.50006 24.994C4.50006 14.6737 12.8663 6.3075 23.1866 6.3075C33.5069 6.3075 41.8731 14.6737 41.8731 24.994ZM37.0539 24.994C37.0539 32.6527 30.8453 38.8613 23.1866 38.8613C15.5279 38.8613 9.31929 32.6527 9.31929 24.994C9.31929 17.3353 15.5279 11.1267 23.1866 11.1267C30.8453 11.1267 37.0539 17.3353 37.0539 24.994ZM40.0539 24.994C40.0539 34.3096 32.5021 41.8613 23.1866 41.8613C13.871 41.8613 6.31929 34.3096 6.31929 24.994C6.31929 15.6785 13.871 8.12673 23.1866 8.12673C32.5021 8.12673 40.0539 15.6785 40.0539 24.994ZM23.1866 34.0421C28.1837 34.0421 32.2347 29.9911 32.2347 24.994C32.2347 19.9969 28.1837 15.946 23.1866 15.946C18.1895 15.946 14.1385 19.9969 14.1385 24.994C14.1385 29.9911 18.1895 34.0421 23.1866 34.0421ZM23.1866 37.0421C29.8406 37.0421 35.2347 31.648 35.2347 24.994C35.2347 18.3401 29.8406 12.946 23.1866 12.946C16.5326 12.946 11.1385 18.3401 11.1385 24.994C11.1385 31.648 16.5326 37.0421 23.1866 37.0421Z" fill="#E4F745"/>
</svg>
